<svg xmlns="http://www.w3.org/2000/svg" viewBox="0 0 698 562.5"><defs><style>.cls-1{fill:#e5e3dc;stroke:#000;stroke-miterlimit:10;stroke-width:2px;opacity:0.62;}</style></defs><g id="Capa_2" data-name="Capa 2"><g id="Capa_1-2" data-name="Capa 1"><rect class="cls-1" x="1" y="1" width="29" height="29.5"/><rect class="cls-1" x="30" y="1" width="29" height="29.5"/><rect class="cls-1" x="59" y="1" width="29" height="29.5"/><rect class="cls-1" x="88" y="1" width="29" height="29.5"/><rect class="cls-1" x="1" y="30.5" width="29" height="29.5"/><rect class="cls-1" x="30" y="30.5" width="29" height="29.5"/><rect class="cls-1" x="59" y="30.5" width="29" height="29.5"/><rect class="cls-1" x="88" y="30.5" width="29" height="29.5"/><rect class="cls-1" x="1" y="60" width="29" height="29.5"/><rect class="cls-1" x="30" y="60" width="29" height="29.5"/><rect class="cls-1" x="59" y="60" width="29" height="29.5"/><rect class="cls-1" x="88" y="60" width="29" height="29.5"/><rect class="cls-1" x="1" y="89.5" width="29" height="29.5"/><rect class="cls-1" x="30" y="89.5" width="29" height="29.5"/><rect class="cls-1" x="59" y="89.5" width="29" height="29.5"/><rect class="cls-1" x="88" y="89.5" width="29" height="29.5"/><rect class="cls-1" x="1" y="119" width="29" height="29.5"/><rect class="cls-1" x="30" y="119" width="29" height="29.5"/><rect class="cls-1" x="59" y="119" width="29" height="29.5"/><rect class="cls-1" x="88" y="119" width="29" height="29.5"/><rect class="cls-1" x="1" y="148.5" width="29" height="29.5"/><rect class="cls-1" x="30" y="148.5" width="29" height="29.5"/><rect class="cls-1" x="59" y="148.5" width="29" height="29.5"/><rect class="cls-1" x="88" y="148.5" width="29" height="29.5"/><rect class="cls-1" x="1" y="178" width="29" height="29.5"/><rect class="cls-1" x="30" y="178" width="29" height="29.5"/><rect class="cls-1" x="59" y="178" width="29" height="29.5"/><rect class="cls-1" x="88" y="178" width="29" height="29.5"/><rect class="cls-1" x="1" y="207.5" width="29" height="29.5"/><rect class="cls-1" x="30" y="207.5" width="29" height="29.5"/><rect class="cls-1" x="59" y="207.5" width="29" height="29.5"/><rect class="cls-1" x="88" y="207.5" width="29" height="29.5"/><rect class="cls-1" x="1" y="237" width="29" height="29.5"/><rect class="cls-1" x="30" y="237" width="29" height="29.5"/><rect class="cls-1" x="59" y="237" width="29" height="29.5"/><rect class="cls-1" x="88" y="237" width="29" height="29.5"/><rect class="cls-1" x="1" y="266.5" width="29" height="29.5"/><rect class="cls-1" x="30" y="266.5" width="29" height="29.5"/><rect class="cls-1" x="59" y="266.5" width="29" height="29.5"/><rect class="cls-1" x="88" y="266.5" width="29" height="29.5"/><rect class="cls-1" x="1" y="296" width="29" height="29.5"/><rect class="cls-1" x="30" y="296" width="29" height="29.5"/><rect class="cls-1" x="59" y="296" width="29" height="29.5"/><rect class="cls-1" x="88" y="296" width="29" height="29.5"/><rect class="cls-1" x="1" y="325.5" width="29" height="29.5"/><rect class="cls-1" x="30" y="325.5" width="29" height="29.5"/><rect class="cls-1" x="59" y="325.5" width="29" height="29.5"/><rect class="cls-1" x="88" y="325.5" width="29" height="29.5"/><rect class="cls-1" x="1" y="355" width="29" height="29.5"/><rect class="cls-1" x="30" y="355" width="29" height="29.5"/><rect class="cls-1" x="59" y="355" width="29" height="29.5"/><rect class="cls-1" x="88" y="355" width="29" height="29.5"/><rect class="cls-1" x="1" y="384.5" width="29" height="29.5"/><rect class="cls-1" x="30" y="384.5" width="29" height="29.5"/><rect class="cls-1" x="59" y="384.5" width="29" height="29.5"/><rect class="cls-1" x="88" y="384.5" width="29" height="29.5"/><rect class="cls-1" x="1" y="414" width="29" height="29.5"/><rect class="cls-1" x="30" y="414" width="29" height="29.5"/><rect class="cls-1" x="59" y="414" width="29" height="29.5"/><rect class="cls-1" x="88" y="414" width="29" height="29.5"/><rect class="cls-1" x="1" y="443.5" width="29" height="29.5"/><rect class="cls-1" x="30" y="443.5" width="29" height="29.5"/><rect class="cls-1" x="59" y="443.5" width="29" height="29.5"/><rect class="cls-1" x="88" y="443.5" width="29" height="29.5"/><rect class="cls-1" x="1" y="473" width="29" height="29.5"/><rect class="cls-1" x="30" y="473" width="29" height="29.5"/><rect class="cls-1" x="59" y="473" width="29" height="29.5"/><rect class="cls-1" x="88" y="473" width="29" height="29.5"/><rect class="cls-1" x="1" y="502.5" width="29" height="29.5"/><rect class="cls-1" x="30" y="502.5" width="29" height="29.5"/><rect class="cls-1" x="59" y="502.5" width="29" height="29.5"/><rect class="cls-1" x="88" y="502.5" width="29" height="29.5"/><rect class="cls-1" x="1" y="532" width="29" height="29.5"/><rect class="cls-1" x="30" y="532" width="29" height="29.5"/><rect class="cls-1" x="59" y="532" width="29" height="29.5"/><rect class="cls-1" x="88" y="532" width="29" height="29.5"/><rect class="cls-1" x="117" y="119" width="29" height="29.5"/><rect class="cls-1" x="146" y="119" width="29" height="29.5"/><rect class="cls-1" x="175" y="119" width="29" height="29.5"/><rect class="cls-1" x="204" y="119" width="29" height="29.5"/><rect class="cls-1" x="117" y="148.5" width="29" height="29.5"/><rect class="cls-1" x="146" y="148.5" width="29" height="29.5"/><rect class="cls-1" x="175" y="148.5" width="29" height="29.5"/><rect class="cls-1" x="204" y="148.5" width="29" height="29.5"/><rect class="cls-1" x="117" y="178" width="29" height="29.5"/><rect class="cls-1" x="146" y="178" width="29" height="29.5"/><rect class="cls-1" x="175" y="178" width="29" height="29.5"/><rect class="cls-1" x="204" y="178" width="29" height="29.5"/><rect class="cls-1" x="117" y="207.5" width="29" height="29.5"/><rect class="cls-1" x="146" y="207.5" width="29" height="29.5"/><rect class="cls-1" x="175" y="207.5" width="29" height="29.5"/><rect class="cls-1" x="204" y="207.5" width="29" height="29.5"/><rect class="cls-1" x="117" y="237" width="29" height="29.5"/><rect class="cls-1" x="146" y="237" width="29" height="29.5"/><rect class="cls-1" x="175" y="237" width="29" height="29.5"/><rect class="cls-1" x="204" y="237" width="29" height="29.5"/><rect class="cls-1" x="117" y="266.5" width="29" height="29.5"/><rect class="cls-1" x="146" y="266.5" width="29" height="29.5"/><rect class="cls-1" x="175" y="266.5" width="29" height="29.5"/><rect class="cls-1" x="204" y="266.5" width="29" height="29.5"/><rect class="cls-1" x="117" y="296" width="29" height="29.5"/><rect class="cls-1" x="146" y="296" width="29" height="29.5"/><rect class="cls-1" x="175" y="296" width="29" height="29.5"/><rect class="cls-1" x="204" y="296" width="29" height="29.5"/><rect class="cls-1" x="117" y="325.5" width="29" height="29.5"/><rect class="cls-1" x="146" y="325.5" width="29" height="29.5"/><rect class="cls-1" x="175" y="325.5" width="29" height="29.5"/><rect class="cls-1" x="204" y="325.5" width="29" height="29.5"/><rect class="cls-1" x="117" y="355" width="29" height="29.5"/><rect class="cls-1" x="146" y="355" width="29" height="29.5"/><rect class="cls-1" x="175" y="355" width="29" height="29.5"/><rect class="cls-1" x="204" y="355" width="29" height="29.5"/><rect class="cls-1" x="117" y="384.5" width="29" height="29.5"/><rect class="cls-1" x="146" y="384.5" width="29" height="29.5"/><rect class="cls-1" x="175" y="384.5" width="29" height="29.5"/><rect class="cls-1" x="204" y="384.5" width="29" height="29.5"/><rect class="cls-1" x="117" y="414" width="29" height="29.5"/><rect class="cls-1" x="146" y="414" width="29" height="29.5"/><rect class="cls-1" x="175" y="414" width="29" height="29.5"/><rect class="cls-1" x="204" y="414" width="29" height="29.5"/><rect class="cls-1" x="117" y="443.5" width="29" height="29.5"/><rect class="cls-1" x="146" y="443.5" width="29" height="29.5"/><rect class="cls-1" x="175" y="443.5" width="29" height="29.5"/><rect class="cls-1" x="204" y="443.5" width="29" height="29.5"/><rect class="cls-1" x="117" y="473" width="29" height="29.5"/><rect class="cls-1" x="146" y="473" width="29" height="29.5"/><rect class="cls-1" x="175" y="473" width="29" height="29.5"/><rect class="cls-1" x="204" y="473" width="29" height="29.5"/><rect class="cls-1" x="117" y="502.5" width="29" height="29.5"/><rect class="cls-1" x="146" y="502.5" width="29" height="29.5"/><rect class="cls-1" x="175" y="502.5" width="29" height="29.5"/><rect class="cls-1" x="204" y="502.5" width="29" height="29.5"/><rect class="cls-1" x="117" y="532" width="29" height="29.5"/><rect class="cls-1" x="146" y="532" width="29" height="29.5"/><rect class="cls-1" x="175" y="532" width="29" height="29.5"/><rect class="cls-1" x="204" y="532" width="29" height="29.5"/><rect class="cls-1" x="233" y="237" width="29" height="29.5"/><rect class="cls-1" x="262" y="237" width="29" height="29.5"/><rect class="cls-1" x="291" y="237" width="29" height="29.5"/><rect class="cls-1" x="320" y="237" width="29" height="29.5"/><rect class="cls-1" x="233" y="266.5" width="29" height="29.5"/><rect class="cls-1" x="262" y="266.5" width="29" height="29.5"/><rect class="cls-1" x="291" y="266.5" width="29" height="29.5"/><rect class="cls-1" x="320" y="266.5" width="29" height="29.5"/><rect class="cls-1" x="233" y="296" width="29" height="29.5"/><rect class="cls-1" x="262" y="296" width="29" height="29.5"/><rect class="cls-1" x="291" y="296" width="29" height="29.5"/><rect class="cls-1" x="320" y="296" width="29" height="29.5"/><rect class="cls-1" x="233" y="325.5" width="29" height="29.5"/><rect class="cls-1" x="262" y="325.5" width="29" height="29.5"/><rect class="cls-1" x="291" y="325.5" width="29" height="29.5"/><rect class="cls-1" x="320" y="325.5" width="29" height="29.5"/><rect class="cls-1" x="233" y="355" width="29" height="29.5"/><rect class="cls-1" x="262" y="355" width="29" height="29.5"/><rect class="cls-1" x="291" y="355" width="29" height="29.5"/><rect class="cls-1" x="320" y="355" width="29" height="29.5"/><rect class="cls-1" x="233" y="384.5" width="29" height="29.5"/><rect class="cls-1" x="262" y="384.5" width="29" height="29.5"/><rect class="cls-1" x="291" y="384.5" width="29" height="29.5"/><rect class="cls-1" x="320" y="384.5" width="29" height="29.5"/><rect class="cls-1" x="233" y="414" width="29" height="29.5"/><rect class="cls-1" x="320" y="414" width="29" height="29.5"/><rect class="cls-1" x="233" y="443.5" width="29" height="29.5"/><rect class="cls-1" x="320" y="443.5" width="29" height="29.5"/><rect class="cls-1" x="233" y="473" width="29" height="29.5"/><rect class="cls-1" x="320" y="473" width="29" height="29.5"/><rect class="cls-1" x="233" y="502.5" width="29" height="29.5"/><rect class="cls-1" x="262" y="502.5" width="29" height="29.5"/><rect class="cls-1" x="291" y="502.5" width="29" height="29.5"/><rect class="cls-1" x="320" y="502.5" width="29" height="29.5"/><rect class="cls-1" x="233" y="532" width="29" height="29.5"/><rect class="cls-1" x="262" y="532" width="29" height="29.5"/><rect class="cls-1" x="291" y="532" width="29" height="29.5"/><rect class="cls-1" x="320" y="532" width="29" height="29.5"/><rect class="cls-1" x="349" y="237" width="29" height="29.5"/><rect class="cls-1" x="378" y="237" width="29" height="29.5"/><rect class="cls-1" x="407" y="237" width="29" height="29.5"/><rect class="cls-1" x="436" y="237" width="29" height="29.5"/><rect class="cls-1" x="349" y="266.5" width="29" height="29.5"/><rect class="cls-1" x="378" y="266.5" width="29" height="29.5"/><rect class="cls-1" x="407" y="266.5" width="29" height="29.5"/><rect class="cls-1" x="436" y="266.5" width="29" height="29.5"/><rect class="cls-1" x="349" y="296" width="29" height="29.5"/><rect class="cls-1" x="378" y="296" width="29" height="29.5"/><rect class="cls-1" x="407" y="296" width="29" height="29.5"/><rect class="cls-1" x="436" y="296" width="29" height="29.5"/><rect class="cls-1" x="349" y="325.5" width="29" height="29.5"/><rect class="cls-1" x="378" y="325.5" width="29" height="29.5"/><rect class="cls-1" x="407" y="325.5" width="29" height="29.5"/><rect class="cls-1" x="436" y="325.5" width="29" height="29.5"/><rect class="cls-1" x="349" y="355" width="29" height="29.5"/><rect class="cls-1" x="378" y="355" width="29" height="29.5"/><rect class="cls-1" x="407" y="355" width="29" height="29.5"/><rect class="cls-1" x="436" y="355" width="29" height="29.5"/><rect class="cls-1" x="349" y="384.5" width="29" height="29.5"/><rect class="cls-1" x="378" y="384.5" width="29" height="29.5"/><rect class="cls-1" x="407" y="384.5" width="29" height="29.5"/><rect class="cls-1" x="436" y="384.5" width="29" height="29.5"/><rect class="cls-1" x="349" y="414" width="29" height="29.5"/><rect class="cls-1" x="378" y="414" width="29" height="29.5"/><rect class="cls-1" x="407" y="414" width="29" height="29.5"/><rect class="cls-1" x="436" y="414" width="29" height="29.5"/><rect class="cls-1" x="349" y="443.5" width="29" height="29.5"/><rect class="cls-1" x="378" y="443.5" width="29" height="29.5"/><rect class="cls-1" x="407" y="443.5" width="29" height="29.5"/><rect class="cls-1" x="436" y="443.5" width="29" height="29.5"/><rect class="cls-1" x="349" y="473" width="29" height="29.5"/><rect class="cls-1" x="378" y="473" width="29" height="29.5"/><rect class="cls-1" x="407" y="473" width="29" height="29.5"/><rect class="cls-1" x="436" y="473" width="29" height="29.5"/><rect class="cls-1" x="349" y="502.5" width="29" height="29.5"/><rect class="cls-1" x="378" y="502.5" width="29" height="29.5"/><rect class="cls-1" x="407" y="502.5" width="29" height="29.5"/><rect class="cls-1" x="436" y="502.5" width="29" height="29.5"/><rect class="cls-1" x="349" y="532" width="29" height="29.5"/><rect class="cls-1" x="378" y="532" width="29" height="29.5"/><rect class="cls-1" x="407" y="532" width="29" height="29.5"/><rect class="cls-1" x="436" y="532" width="29" height="29.5"/><rect class="cls-1" x="465" y="237" width="29" height="29.5"/><rect class="cls-1" x="465" y="266.5" width="29" height="29.5"/><rect class="cls-1" x="494" y="266.5" width="29" height="29.5"/><rect class="cls-1" x="523" y="266.5" width="29" height="29.5"/><rect class="cls-1" x="465" y="296" width="29" height="29.5"/><rect class="cls-1" x="494" y="296" width="29" height="29.5"/><rect class="cls-1" x="523" y="296" width="29" height="29.5"/><rect class="cls-1" x="465" y="325.5" width="29" height="29.5"/><rect class="cls-1" x="494" y="325.5" width="29" height="29.5"/><rect class="cls-1" x="523" y="325.5" width="29" height="29.5"/><rect class="cls-1" x="465" y="355" width="29" height="29.5"/><rect class="cls-1" x="494" y="355" width="29" height="29.5"/><rect class="cls-1" x="523" y="355" width="29" height="29.5"/><rect class="cls-1" x="465" y="384.5" width="29" height="29.5"/><rect class="cls-1" x="494" y="384.5" width="29" height="29.5"/><rect class="cls-1" x="523" y="384.5" width="29" height="29.5"/><rect class="cls-1" x="465" y="414" width="29" height="29.5"/><rect class="cls-1" x="494" y="414" width="29" height="29.5"/><rect class="cls-1" x="523" y="414" width="29" height="29.5"/><rect class="cls-1" x="465" y="443.5" width="29" height="29.5"/><rect class="cls-1" x="494" y="443.5" width="29" height="29.5"/><rect class="cls-1" x="523" y="443.5" width="29" height="29.5"/><rect class="cls-1" x="465" y="473" width="29" height="29.5"/><rect class="cls-1" x="494" y="473" width="29" height="29.5"/><rect class="cls-1" x="523" y="473" width="29" height="29.5"/><rect class="cls-1" x="465" y="502.5" width="29" height="29.5"/><rect class="cls-1" x="494" y="502.5" width="29" height="29.5"/><rect class="cls-1" x="523" y="502.5" width="29" height="29.5"/><rect class="cls-1" x="465" y="532" width="29" height="29.5"/><rect class="cls-1" x="494" y="532" width="29" height="29.5"/><rect class="cls-1" x="523" y="532" width="29" height="29.5"/><rect class="cls-1" x="552" y="296" width="29" height="29.5"/><rect class="cls-1" x="581" y="296" width="29" height="29.5"/><rect class="cls-1" x="610" y="296" width="29" height="29.5"/><rect class="cls-1" x="639" y="296" width="29" height="29.5"/><rect class="cls-1" x="552" y="325.5" width="29" height="29.5"/><rect class="cls-1" x="581" y="325.5" width="29" height="29.5"/><rect class="cls-1" x="610" y="325.5" width="29" height="29.5"/><rect class="cls-1" x="639" y="325.5" width="29" height="29.5"/><rect class="cls-1" x="552" y="355" width="29" height="29.5"/><rect class="cls-1" x="581" y="355" width="29" height="29.5"/><rect class="cls-1" x="552" y="384.5" width="29" height="29.5"/><rect class="cls-1" x="581" y="384.5" width="29" height="29.5"/><rect class="cls-1" x="610" y="384.5" width="29" height="29.5"/><rect class="cls-1" x="639" y="384.5" width="29" height="29.5"/><rect class="cls-1" x="552" y="414" width="29" height="29.5"/><rect class="cls-1" x="581" y="414" width="29" height="29.5"/><rect class="cls-1" x="610" y="414" width="29" height="29.5"/><rect class="cls-1" x="639" y="414" width="29" height="29.5"/><rect class="cls-1" x="552" y="443.5" width="29" height="29.5"/><rect class="cls-1" x="581" y="443.5" width="29" height="29.5"/><rect class="cls-1" x="610" y="443.5" width="29" height="29.5"/><rect class="cls-1" x="639" y="443.5" width="29" height="29.5"/><rect class="cls-1" x="552" y="473" width="29" height="29.5"/><rect class="cls-1" x="581" y="473" width="29" height="29.5"/><rect class="cls-1" x="610" y="473" width="29" height="29.5"/><rect class="cls-1" x="639" y="473" width="29" height="29.5"/><rect class="cls-1" x="552" y="502.5" width="29" height="29.5"/><rect class="cls-1" x="581" y="502.5" width="29" height="29.5"/><rect class="cls-1" x="610" y="502.5" width="29" height="29.5"/><rect class="cls-1" x="639" y="502.5" width="29" height="29.5"/><rect class="cls-1" x="552" y="532" width="29" height="29.5"/><rect class="cls-1" x="581" y="532" width="29" height="29.5"/><rect class="cls-1" x="610" y="532" width="29" height="29.5"/><rect class="cls-1" x="639" y="532" width="29" height="29.5"/><rect class="cls-1" x="668" y="296" width="29" height="29.5"/><rect class="cls-1" x="668" y="325.5" width="29" height="29.5"/><rect class="cls-1" x="668" y="355" width="29" height="29.5"/><rect class="cls-1" x="668" y="384.5" width="29" height="29.5"/><rect class="cls-1" x="668" y="414" width="29" height="29.5"/><rect class="cls-1" x="668" y="443.5" width="29" height="29.5"/><rect class="cls-1" x="668" y="473" width="29" height="29.5"/><rect class="cls-1" x="668" y="502.5" width="29" height="29.5"/><rect class="cls-1" x="668" y="532" width="29" height="29.5"/></g></g></svg>